PathFileType	4	(X/Y/Z)	./resultDataOpenSim/trcMotMarkerGrf/sub06/qtm-13-05.trc
DataRate	CameraRate	NumFrames	NumMarkers	Units	OrigDataRate	OrigDataStartFrame	OrigNumFrames
250.000000	250.000000	14	24	m	250.000000	309	493
Frame#	Time	L.Toe.Tip			R.Toe.Tip			L.Ankle.Lat			R.Ankle.Lat			L.Ankle.Med			R.Ankle.Med			L.Heel			R.Heel			L.Knee.Lat			R.Knee.Lat			L.Knee.Med			R.Knee.Med			L.Thigh.Upper			R.Thigh.Upper			L.ASIS			R.ASIS			V.Sacral			L.Acromium			R.Acromium			C7			L.Elbow			R.Elbow			L.Wrist.Lat			R.Wrist.Lat
		X1	Y1	Z1	X2	Y2	Z2	X3	Y3	Z3	X4	Y4	Z4	X5	Y5	Z5	X6	Y6	Z6	X7	Y7	Z7	X8	Y8	Z8	X9	Y9	Z9	X10	Y10	Z10	X11	Y11	Z11	X12	Y12	Z12	X13	Y13	Z13	X14	Y14	Z14	X15	Y15	Z15	X16	Y16	Z16	X17	Y17	Z17	X18	Y18	Z18	X19	Y19	Z19	X20	Y20	Z20	X21	Y21	Z21	X22	Y22	Z22	X23	Y23	Z23	X24	Y24	Z24

309	1.232	0.46167383	0.13504847	-0.058904409	0.94946538	0.035208407	0.11208343	0.48039033	0.26643745	-0.082116073	0.81278081	0.062311536	0.12976278	0.50683946	0.26320322	-0.0012082688	0.83631271	0.081036766	0.04284119	0.44435505	0.32490805	-0.025512279	0.75937811	0.041885669	0.068243727	0.82812108	0.39046633	-0.1330174	0.91720562	0.43491572	0.16581639	0.83564024	0.38016823	-0.0065546791	0.88112117	0.42862414	0.043864275	0.74300571	0.77513365	-0.11052478	0.8053083	0.79468937	0.22818842	0.83797818	0.82070454	-0.07087973	0.87996857	0.84458469	0.15754067	0.67169088	0.91559077	0.075830763	0.79740408	1.3248342	-0.12249959	0.82303924	1.2958871	0.2383736	0.73328062	1.3510773	0.064387191	0.80670625	0.99939944	-0.19748132	0.73224941	0.98945854	0.3026529	1.0326961	0.89623548	-0.16811414	0.88861796	0.80357296	0.33839593
310	1.236	0.47582826	0.13707763	-0.058816275	0.94944844	0.035215702	0.11218108	0.49356574	0.26861786	-0.08208742	0.81278663	0.062469671	0.1298066	0.51997701	0.26556387	-0.0011827975	0.83639484	0.0813246	0.042925787	0.45689344	0.32679343	-0.025393734	0.75945487	0.042180096	0.068120384	0.84053938	0.39396949	-0.13304511	0.91773077	0.43523919	0.16589956	0.84798499	0.38361457	-0.006305914	0.88151978	0.42905637	0.043860647	0.74984663	0.77769883	-0.11070479	0.81002321	0.79628048	0.22841284	0.84507134	0.82302003	-0.070397113	0.88536952	0.84659891	0.15827377	0.67744075	0.91762095	0.075620341	0.80314053	1.3269468	-0.1224971	0.82904176	1.2984431	0.23825238	0.73915102	1.3532523	0.064394079	0.80952412	1.0015935	-0.19718048	0.74062678	0.99116989	0.30324081	1.0339789	0.8949732	-0.16950771	0.9011706	0.8083258	0.33668381
311	1.24	0.49014477	0.13884649	-0.058787293	0.94943159	0.035221366	0.11228196	0.50673186	0.27054145	-0.082047621	0.81277884	0.062621113	0.12982427	0.53311569	0.26767957	-0.0011419556	0.83650667	0.081613219	0.042973944	0.46936871	0.32838937	-0.025330967	0.75953365	0.042491548	0.067994596	0.85286226	0.39754504	-0.13304654	0.91825014	0.43556984	0.16591717	0.86027073	0.38717566	-0.0060442	0.88186608	0.42943041	0.043784758	0.75674297	0.78032096	-0.11090637	0.81486174	0.79787904	0.22860434	0.85215688	0.82534167	-0.069940343	0.89080638	0.8486456	0.1589622	0.68318909	0.91962418	0.075409441	0.8088846	1.329035	-0.12249789	0.83502645	1.3009953	0.23812366	0.74502638	1.3554049	0.064361892	0.81231346	1.0037943	-0.19688545	0.74889411	0.9928961	0.30379145	1.0351728	0.8937323	-0.17094881	0.91359136	0.81319274	0.33494762
312	1.244	0.5046502	0.14034787	-0.058818276	0.94942062	0.035225178	0.11238068	0.51981165	0.27220991	-0.08195818	0.81276053	0.062779226	0.12982323	0.54626083	0.26954023	-0.0011010598	0.83664481	0.081898161	0.042994651	0.48178911	0.32965218	-0.025283112	0.75960284	0.042818158	0.067897172	0.86508779	0.40117902	-0.13300832	0.91877096	0.4359228	0.16587039	0.8724101	0.39084595	-0.005743006	0.88212457	0.42978349	0.043659154	0.76370717	0.78290606	-0.11116122	0.81997841	0.7995305	0.22869207	0.85923258	0.82766622	-0.069509448	0.89626748	0.85069325	0.15959967	0.68894053	0.92160293	0.075188911	0.81463545	1.3310909	-0.12249985	0.84099975	1.3035349	0.23798682	0.75091118	1.3575315	0.06428573	0.81507897	1.0059979	-0.19659543	0.75697965	0.9946222	0.30428614	1.0362848	0.89251122	-0.17243642	0.92588061	0.81816595	0.33319101
313	1.248	0.51936387	0.1415774	-0.058905937	0.94942654	0.035230066	0.112468	0.53281944	0.27362188	-0.081856138	0.81275543	0.062964415	0.12981482	0.55941735	0.27113791	-0.001077431	0.8367982	0.082187417	0.043007181	0.49416908	0.33054844	-0.025211974	0.75966674	0.043161812	0.067832172	0.87721494	0.40486501	-0.13294455	0.919287	0.43630051	0.16578203	0.88427336	0.39461662	-0.0053517101	0.88228598	0.43015971	0.043516538	0.77074132	0.78542695	-0.11147493	0.82545235	0.80124909	0.22859613	0.86629619	0.82999042	-0.069104458	0.9017371	0.85271258	0.16018209	0.69469131	0.92355776	0.074951682	0.82039187	1.3331068	-0.12250314	0.8469707	1.306055	0.2378482	0.75679784	1.3596248	0.064190455	0.81782534	1.0082004	-0.19630963	0.76492203	0.99635194	0.30473855	1.0373197	0.89131254	-0.17396662	0.93804138	0.82323027	0.33141685
314	1.252	0.53429386	0.14253697	-0.059044877	0.94945849	0.035240656	0.11253442	0.54581761	0.27476281	-0.081794616	0.81278126	0.063188455	0.12980688	0.57257718	0.27247279	-0.0010727717	0.83695975	0.082499842	0.043024017	0.50650217	0.33108305	-0.025100589	0.75974531	0.043525159	0.067766884	0.88924315	0.40859591	-0.13287526	0.91978867	0.43668727	0.16567031	0.89581619	0.3984693	-0.0048549773	0.88241757	0.43055593	0.043394022	0.77784868	0.78791005	-0.1118626	0.83127047	0.80300689	0.22830104	0.8733455	0.83231105	-0.0687254	0.90721016	0.85468564	0.16071438	0.70043675	0.92548257	0.074698418	0.82614944	1.335078	-0.1225114	0.85294454	1.3085543	0.23771685	0.76267265	1.3616776	0.064106846	0.82055726	1.0103978	-0.19602725	0.77280324	0.99808557	0.30517455	1.0382786	0.89013727	-0.17553332	0.95009164	0.82836839	0.32962584
315	1.256	0.54944207	0.1432301	-0.059227453	0.94951294	0.035258854	0.11258001	0.55885594	0.27559963	-0.081777865	0.81283484	0.063447415	0.12979684	0.58571696	0.27355355	-0.0010589119	0.83712977	0.082852252	0.043046774	0.5187649	0.33128109	-0.024954436	0.75985359	0.043908346	0.067660334	0.90116889	0.41235956	-0.13279612	0.92026791	0.43706963	0.16554213	0.90716904	0.40238265	-0.0043140229	0.88255887	0.43094155	0.043284597	0.78503658	0.79037942	-0.1123609	0.83714152	0.80469724	0.22796085	0.88037825	0.83462485	-0.068372304	0.91269489	0.85660382	0.16120858	0.7061808	0.9273688	0.074435222	0.83189926	1.3370012	-0.1225282	0.85891624	1.3110341	0.23759289	0.76852795	1.3636841	0.064043679	0.82327934	1.0125861	-0.19574752	0.78066497	0.99980843	0.30560827	1.0391591	0.88897702	-0.17712704	0.9620692	0.83357436	0.32781514
316	1.26	0.56480411	0.14365505	-0.059440735	0.94957175	0.035281956	0.11261954	0.57195791	0.27610003	-0.081781116	0.81289639	0.06373336	0.12977617	0.59881674	0.2743878	-0.00099951202	0.83731089	0.083248003	0.043074687	0.53094523	0.33115403	-0.02479887	0.75998483	0.044311914	0.067506442	0.91297909	0.41614424	-0.13268702	0.9207229	0.43744981	0.16540152	0.91851578	0.406344	-0.0038049547	0.88256105	0.4313376	0.043112485	0.79229918	0.79284324	-0.11297074	0.8425079	0.80616329	0.22785049	0.88739223	0.83692858	-0.068045199	0.918199	0.85845943	0.16167315	0.71194493	0.92921325	0.074163174	0.83763394	1.3388715	-0.12255293	0.86487251	1.3134886	0.23746692	0.77436391	1.3656369	0.063992712	0.82599614	1.0147614	-0.1954697	0.78849912	1.0015043	0.306039	1.03996	0.88781872	-0.17873526	0.97399762	0.83885832	0.32597932
317	1.264	0.58035977	0.14380349	-0.059662695	0.94961928	0.035306209	0.11266952	0.58513123	0.27625414	-0.081797461	0.81294697	0.064045191	0.12973875	0.61188008	0.2749735	-0.00088945016	0.83750696	0.083677257	0.043109013	0.54305632	0.33068781	-0.024667975	0.76012372	0.044740584	0.067332745	0.92466302	0.41993494	-0.13252028	0.9211593	0.43783719	0.16525565	0.92995982	0.41034061	-0.0033351519	0.88225548	0.43181092	0.042806379	0.79960803	0.79530507	-0.11360335	0.84712696	0.80735548	0.22807221	0.8943852	0.83921901	-0.067744115	0.9237139	0.86024068	0.16210587	0.71776613	0.93101865	0.073870921	0.84335246	1.3406818	-0.12258237	0.87080152	1.3159009	0.23733039	0.78018338	1.3675301	0.063943613	0.82871217	1.0169196	-0.19519305	0.79628556	1.0031674	0.30645682	1.0406861	0.88665448	-0.18034847	0.98583882	0.84423127	0.32411929
318	1.268	0.59607839	0.14366461	-0.059868479	0.94965734	0.035329618	0.11273302	0.5983706	0.27607305	-0.08183165	0.81298356	0.064388494	0.12968363	0.62492835	0.27530155	-0.00075736142	0.83772135	0.084127663	0.043154037	0.55512843	0.32985311	-0.02459607	0.76026158	0.045203514	0.06716632	0.93621974	0.42371071	-0.13226928	0.92158483	0.43823464	0.16511204	0.94151945	0.41435065	-0.0028577118	0.88180754	0.43237714	0.042390905	0.80693625	0.79776254	-0.114115	0.85150686	0.80842331	0.2283876	0.90135492	0.84149289	-0.067469081	0.92921883	0.8619386	0.16249797	0.72367777	0.93278608	0.073542132	0.84905668	1.3424285	-0.12261493	0.87670232	1.318253	0.23718232	0.78598774	1.3693642	0.063887482	0.83143222	1.0190569	-0.19491671	0.80402403	1.0048034	0.30685009	1.0413488	0.88548388	-0.18196208	0.99750916	0.84968587	0.32224821
319	1.272	0.61195802	0.14323981	-0.060054898	0.94969585	0.035350282	0.11280361	0.61165891	0.27557542	-0.081868912	0.81302159	0.064772961	0.12961082	0.63797888	0.27536004	-0.00063276117	0.83795177	0.084598132	0.043215881	0.56719869	0.32862507	-0.024613475	0.76040051	0.045709084	0.067005481	0.94764046	0.42745523	-0.13193543	0.92200313	0.43863786	0.16497407	0.95311359	0.41835814	-0.0023414172	0.88158236	0.43297719	0.041958413	0.81428419	0.80020471	-0.1143979	0.85628357	0.80954047	0.22850269	0.90829916	0.84374697	-0.067220128	0.93470465	0.8635553	0.16284165	0.72968341	0.93450794	0.073172896	0.85474609	1.3441153	-0.12265136	0.88258667	1.3205366	0.23702825	0.79177691	1.3711457	0.063818497	0.83416192	1.0211703	-0.19463946	0.81174891	1.0064281	0.30721811	1.0419595	0.88431011	-0.18357055	1.0089483	0.85519639	0.32037998
320	1.276	0.62804156	0.14255981	-0.060254992	0.94973504	0.035364738	0.11287797	0.62498527	0.27477304	-0.081885269	0.81308587	0.065208588	0.12951502	0.65104145	0.27513248	-0.00052800447	0.83819982	0.085101276	0.043286854	0.5793024	0.32699799	-0.024731639	0.76056156	0.046256636	0.066807494	0.9589031	0.43116268	-0.13154892	0.92241571	0.43904523	0.16484601	0.96460817	0.42236075	-0.0017970823	0.88170065	0.43355879	0.041563265	0.82166182	0.80263349	-0.1144609	0.86147907	0.81071574	0.22836729	0.91521568	0.84597801	-0.066997284	0.94018931	0.86510019	0.16313284	0.73574088	0.93617137	0.072784508	0.86041662	1.3457479	-0.12269288	0.88846855	1.3227515	0.23687391	0.7975521	1.3728816	0.06373908	0.83690804	1.0232578	-0.19435972	0.81952035	1.0080614	0.30757419	1.0425252	0.88313522	-0.1851655	1.0201507	0.86073781	0.31851833
321	1.28	0.64437407	0.14167231	-0.060511198	0.94976305	0.03536936	0.11295943	0.6383635	0.27365557	-0.081881021	0.81319273	0.065696065	0.12938743	0.66415024	0.27459606	-0.00045138113	0.83848359	0.085648125	0.043333278	0.59145193	0.3249824	-0.024923303	0.76077257	0.046842689	0.066521676	0.97000154	0.43483317	-0.13113456	0.92282819	0.43946252	0.16474003	0.97596739	0.42635213	-0.0012558182	0.88203252	0.43412021	0.041188483	0.82905753	0.80507128	-0.1144555	0.86675798	0.81185895	0.22807869	0.92210228	0.8481828	-0.066800569	0.94570364	0.86658071	0.16337363	0.74177341	0.93777339	0.072418385	0.86606316	1.347327	-0.12273857	0.89434905	1.324899	0.2367176	0.80331675	1.3745706	0.063659482	0.83967701	1.0253165	-0.1940762	0.82737811	1.0097082	0.30793207	1.0430496	0.8819562	-0.18674106	1.0311562	0.86629778	0.31666113
322	1.284	0.66099002	0.14059689	-0.060840158	0.9497722	0.035364672	0.11304979	0.65182766	0.27218995	-0.081882694	0.81333293	0.066221063	0.12922752	0.67739201	0.27372419	-0.00041905557	0.83881693	0.086232942	0.043322247	0.60362642	0.32259071	-0.025132013	0.7610495	0.047478408	0.066140208	0.98097261	0.43846594	-0.1306894	0.92325203	0.43989876	0.16466709	0.98729982	0.43031348	-0.00073006295	0.88247364	0.43467176	0.040794197	0.83644075	0.80751381	-0.11457722	0.87193158	0.81291514	0.2277246	0.92895673	0.8503581	-0.066630001	0.95125814	0.86799686	0.1635785	0.7477171	0.93932555	0.072108971	0.87168481	1.3488482	-0.12278529	0.9002156	1.3269789	0.23655161	0.80907341	1.3761995	0.063587183	0.84246993	1.0273386	-0.19378994	0.83530902	1.0113489	0.30830413	1.0435376	0.88076547	-0.18829488	1.0420373	0.87186687	0.31480502
